/* XPM */
static const char *exit[] = {
/* columns rows colors chars-per-pixel */
"64 64 8 1 ",
"  c #F4B41B",
". c #38D973",
"X c #7A444A",
"o c #3CACD7",
"O c #E6492E",
"+ c #BF7958",
"@ c #CFC6B8",
"# c #472D3C",
/* pixels */
"################################################################",
"################################################################",
"################################################################",
"################################################################",
"################################################################",
"################################################################",
"################################################################",
"################################################################",
"####@@@@@@@@@@@@@@@@@@@@@@@@@@@@@@@@@@@@@@@@@@@@@@@@@@@@@@@@####",
"####@@@@@@@@@@@@@@@@@@@@@@@@@@@@@@@@@@@@@@@@@@@@@@@@@@@@@@@@####",
"####@@@@@@@@@@@@@@@@@@@@@@@@@@@@@@@@@@@@@@@@@@@@@@@@@@@@@@@@####",
"####@@@@@@@@@@@@@@@@@@@@@@@@@@@@@@@@@@@@@@@@@@@@@@@@@@@@@@@@####",
"########@@@@@@@@################################@@@@@@@@########",
"########@@@@@@@@################################@@@@@@@@########",
"########@@@@@@@@################################@@@@@@@@########",
"########@@@@@@@@################################@@@@@@@@########",
"####@@@@####@@@@####@@@@@@@@@@@@@@@@@@@@@@@@####@@@@####@@@@####",
"####@@@@####@@@@####@@@@@@@@@@@@@@@@@@@@@@@@####@@@@####@@@@####",
"####@@@@####@@@@####@@@@@@@@@@@@@@@@@@@@@@@@####@@@@####@@@@####",
"####@@@@####@@@@####@@@@@@@@@@@@@@@@@@@@@@@@####@@@@####@@@@####",
"########@@@@@@@@####@@@@################@@@@####@@@@@@@@########",
"########@@@@@@@@####@@@@################@@@@####@@@@@@@@########",
"########@@@@@@@@####@@@@################@@@@####@@@@@@@@########",
"########@@@@@@@@####@@@@################@@@@####@@@@@@@@########",
"####@@@@####@@@@####@@@@################@@@@####@@@@####@@@@####",
"####@@@@####@@@@####@@@@################@@@@####@@@@####@@@@####",
"####@@@@####@@@@####@@@@################@@@@####@@@@####@@@@####",
"####@@@@####@@@@####@@@@################@@@@####@@@@####@@@@####",
"########@@@@@@@@####@@@@################@@@@####@@@@@@@@########",
"########@@@@@@@@####@@@@################@@@@####@@@@@@@@########",
"########@@@@@@@@####@@@@################@@@@####@@@@@@@@########",
"########@@@@@@@@####@@@@################@@@@####@@@@@@@@########",
"####@@@@####@@@@####@@@@@@@@@@@@@@@@@@@@@@@@####@@@@####@@@@####",
"####@@@@####@@@@####@@@@@@@@@@@@@@@@@@@@@@@@####@@@@####@@@@####",
"####@@@@####@@@@####@@@@@@@@@@@@@@@@@@@@@@@@####@@@@####@@@@####",
"####@@@@####@@@@####@@@@@@@@@@@@@@@@@@@@@@@@####@@@@####@@@@####",
"########@@@@@@@@####@@@@@@@@@@@@@@@@####@@@@####@@@@@@@@########",
"########@@@@@@@@####@@@@@@@@@@@@@@@@####@@@@####@@@@@@@@########",
"########@@@@@@@@####@@@@@@@@@@@@@@@@####@@@@####@@@@@@@@########",
"########@@@@@@@@####@@@@@@@@@@@@@@@@####@@@@####@@@@@@@@########",
"####@@@@####@@@@####@@@@@@@@@@@@@@@@@@@@@@@@####@@@@####@@@@####",
"####@@@@####@@@@####@@@@@@@@@@@@@@@@@@@@@@@@####@@@@####@@@@####",
"####@@@@####@@@@####@@@@@@@@@@@@@@@@@@@@@@@@####@@@@####@@@@####",
"####@@@@####@@@@####@@@@@@@@@@@@@@@@@@@@@@@@####@@@@####@@@@####",
"########@@@@@@@@####@@@@@@@@@@@@@@@@@@@@@@@@####@@@@@@@@########",
"########@@@@@@@@####@@@@@@@@@@@@@@@@@@@@@@@@####@@@@@@@@########",
"########@@@@@@@@####@@@@@@@@@@@@@@@@@@@@@@@@####@@@@@@@@########",
"########@@@@@@@@####@@@@@@@@@@@@@@@@@@@@@@@@####@@@@@@@@########",
"####@@@@@@@@@@@@####@@@@@@@@@@@@@@@@@@@@@@@@####@@@@@@@@@@@@####",
"####@@@@@@@@@@@@####@@@@@@@@@@@@@@@@@@@@@@@@####@@@@@@@@@@@@####",
"####@@@@@@@@@@@@####@@@@@@@@@@@@@@@@@@@@@@@@####@@@@@@@@@@@@####",
"####@@@@@@@@@@@@####@@@@@@@@@@@@@@@@@@@@@@@@####@@@@@@@@@@@@####",
"################################################################",
"################################################################",
"################################################################",
"################################################################",
"################################################################",
"################################################################",
"################################################################",
"################################################################",
"####@@@@@@@@@@@@@@@@@@@@@@@@@@@@@@@@@@@@@@@@@@@@@@@@@@@@@@@@####",
"####@@@@@@@@@@@@@@@@@@@@@@@@@@@@@@@@@@@@@@@@@@@@@@@@@@@@@@@@####",
"####@@@@@@@@@@@@@@@@@@@@@@@@@@@@@@@@@@@@@@@@@@@@@@@@@@@@@@@@####",
"####@@@@@@@@@@@@@@@@@@@@@@@@@@@@@@@@@@@@@@@@@@@@@@@@@@@@@@@@####"
};
