/* XPM */
static const char *fire[] = {
/* columns rows colors chars-per-pixel */
"64 64 8 1 ",
"  c #F4B41B",
". c #38D973",
"X c #7A444A",
"o c #3CACD7",
"O c #E6492E",
"+ c #BF7958",
"@ c #CFC6B8",
"# c #472D3C",
/* pixels */
"################################################################",
"################################################################",
"################################################################",
"################################################################",
"################################################################",
"################################################################",
"################################################################",
"################################################################",
"############################OOOO################################",
"############################OOOO################################",
"############################OOOO################################",
"############################OOOO################################",
"################################OOOO############################",
"################################OOOO############################",
"################################OOOO############################",
"################################OOOO############################",
"############################OOOOOOOOOOOO########################",
"############################OOOOOOOOOOOO########################",
"############################OOOOOOOOOOOO########################",
"############################OOOOOOOOOOOO########################",
"########################OOOOOOOOOOOO############################",
"########################OOOOOOOOOOOO############################",
"########################OOOOOOOOOOOO############################",
"########################OOOOOOOOOOOO############################",
"########################OOOOOOOOOOOOOOOO########################",
"########################OOOOOOOOOOOOOOOO########################",
"########################OOOOOOOOOOOOOOOO########################",
"########################OOOOOOOOOOOOOOOO########################",
"####################OOOOOOOOOOOOOOOOOOOOOOOO####################",
"####################OOOOOOOOOOOOOOOOOOOOOOOO####################",
"####################OOOOOOOOOOOOOOOOOOOOOOOO####################",
"####################OOOOOOOOOOOOOOOOOOOOOOOO####################",
"####################OOOOOOOO####OOOOOOOOOOOO####################",
"####################OOOOOOOO####OOOOOOOOOOOO####################",
"####################OOOOOOOO####OOOOOOOOOOOO####################",
"####################OOOOOOOO####OOOOOOOOOOOO####################",
"################OOOOOOOOOOOOOOOO####OOOOOOOOOOOO################",
"################OOOOOOOOOOOOOOOO####OOOOOOOOOOOO################",
"################OOOOOOOOOOOOOOOO####OOOOOOOOOOOO################",
"################OOOOOOOOOOOOOOOO####OOOOOOOOOOOO################",
"####################OOOOOOOO####OOOOOOOOOOOOOOOO################",
"####################OOOOOOOO####OOOOOOOOOOOOOOOO################",
"####################OOOOOOOO####OOOOOOOOOOOOOOOO################",
"####################OOOOOOOO####OOOOOOOOOOOOOOOO################",
"################OOOOOOOOOOOO########OOOOOOOO####################",
"################OOOOOOOOOOOO########OOOOOOOO####################",
"################OOOOOOOOOOOO########OOOOOOOO####################",
"################OOOOOOOOOOOO########OOOOOOOO####################",
"################OOOOOOOOOOOO########OOOOOOOOOOOO################",
"################OOOOOOOOOOOO########OOOOOOOOOOOO################",
"################OOOOOOOOOOOO########OOOOOOOOOOOO################",
"################OOOOOOOOOOOO########OOOOOOOOOOOO################",
"####################OOOOOOOOOOOOOOOOOOOOOOOO####################",
"####################OOOOOOOOOOOOOOOOOOOOOOOO####################",
"####################OOOOOOOOOOOOOOOOOOOOOOOO####################",
"####################OOOOOOOOOOOOOOOOOOOOOOOO####################",
"############################OOOOOOOO############################",
"############################OOOOOOOO############################",
"############################OOOOOOOO############################",
"############################OOOOOOOO############################",
"################################################################",
"################################################################",
"################################################################",
"################################################################"
};
