/* XPM */
static char * water_xpm[] = {
"64 64 21 1",
" 	c #472D3C",
".	c #E54A32",
"+	c #F4B321",
"@	c #CEC5B7",
"#	c #48495D",
"$	c #457593",
"%	c #4294BA",
"&	c #3E47D6",
"*	c #3E4AD6",
"=	c #3E49D6",
"-	c #3E45D6",
";	c #43AAD5",
">	c #3EAAD5",
",	c #3F42CD",
"'	c #447A9A",
")	c #438DB1",
"!	c #4042CC",
"~	c #46637D",
"{	c #3F42CF",
"]	c #3E43D5",
"^	c #3F43D4",
"                                                                ",
"                                                                ",
"                                                                ",
"                                                                ",
"                    ................                            ",
"                    ................                            ",
"                    ................                            ",
"                    ................                            ",
"            ............++++++++............                    ",
"            ............++++++++............                    ",
"            ............++++++++............                    ",
"            ............++++++++............                    ",
"        ................++++++++................                ",
"        ................++++++++................                ",
"        ................++++++++................                ",
"        ................++++++++................                ",
"                @@@@@@@@@@@@@@@@@@@@@@@@                        ",
"                @@@@@@@@@@@@@@@@@@@@@@@@                        ",
"                @@@@@@@@@@@@@@@@@@@@@@@@                        ",
"                @@@@@@@@@@@@@@@@@@@@@@@@                        ",
"                @@@@    @@@@@@@@    @@@@                        ",
"                @@@@    @@@@@@@@    @@@@                        ",
"                @@@@    @@@@@@@@    @@@@                        ",
"                @@@@    @@@@@@@@    @@@@                        ",
"                @@@@@@@@@@@@@@@@@@@@@@@@                        ",
"                @@@@@@@@@@@@@@@@@@@@@@@@                        ",
"                @@@@@@@@@@@@@@@@@@@@@@@@                        ",
"                @@@@@@@@@@@@@@@@@@@@@@@@                        ",
"                @@@@@@@@        @@@@@@@@                        ",
"                @@@@@@@@        @@@@@@@@                        ",
"                @@@@@@@@        @@@@@@@@                        ",
"                @@@@@@@@        @@@@@@@@                        ",
"    ++++++++++++........................++++++++                ",
"    ++++++++++++........................++++++++                ",
"    ++++++++++++........................++++++++                ",
"    ++++++++++++........................++++++++                ",
"    ............++++++++++++++++++++++++........            ####",
"    ............++++++++++++++++++++++++........            ####",
"    ............++++++++++++++++++++++++........            ####",
"    ............++++++++++++++++++++++++........            ####",
"    @@@@        ........................    @@@@        $$$$%%%%",
"    @@@@        ........................    @@@@        $$$$%%%%",
"    @@@@        ........................    @@@@        $$$$%%%%",
"    @@@@        ........................    @@@@        $$$$%%%%",
"    @@@@@@@@&&&&****====&&&&&&&&&&&&----====@@@@====....;;;;>>>>",
"    @@@@@@@@&&&&****====&&&&&&&&&&&&----====@@@@====....;;;;>>>>",
"    @@@@@@@@&&&&****====&&&&&&&&&&&&----====@@@@====....;;;;>>>>",
"    @@@@@@@@&&&&****====&&&&&&&&&&&&----====@@@@====....;;;;>>>>",
"        ,,,,    ++++++++++++++++++++++++                ''''))))",
"        ,,,,    ++++++++++++++++++++++++                ''''))))",
"        ,,,,    ++++++++++++++++++++++++                ''''))))",
"        ,,,,    ++++++++++++++++++++++++                ''''))))",
"        !!!!    ....++++++++++++++++....                    ~~~~",
"        !!!!    ....++++++++++++++++....                    ~~~~",
"        !!!!    ....++++++++++++++++....                    ~~~~",
"        !!!!    ....++++++++++++++++....                    ~~~~",
"{{{{]]]]^^^^    ........            ........                    ",
"{{{{]]]]^^^^    ........            ........                    ",
"{{{{]]]]^^^^    ........            ........                    ",
"{{{{]]]]^^^^    ........            ........                    ",
"                                                                ",
"                                                                ",
"                                                                ",
"                                                                "};
