/* XPM */
static const char *water[] = {
/* columns rows colors chars-per-pixel */
"64 64 8 1 ",
"  c #393B7E",
". c #38D973",
"X c #7A444A",
"o c #3CACD7",
"O c #E6492E",
"+ c black",
"@ c white",
"# c #472D3C",
/* pixels */
"################################################################",
"################################################################",
"################################################################",
"################################################################",
"############################oooooooo############################",
"############################oooooooo############################",
"############################oooooooo############################",
"############################oooooooo############################",
"############################oooooooo############################",
"############################oooooooo############################",
"############################oooooooo############################",
"############################oooooooo############################",
"########################oooooooooooooooo########################",
"########################oooooooooooooooo########################",
"########################oooooooooooooooo########################",
"########################oooooooooooooooo########################",
"########################oooooooooooooooo########################",
"########################oooooooooooooooo########################",
"########################oooooooooooooooo########################",
"########################oooooooooooooooo########################",
"####################oooooooooooooooooooooooo####################",
"####################oooooooooooooooooooooooo####################",
"####################oooooooooooooooooooooooo####################",
"####################oooooooooooooooooooooooo####################",
"####################oooooooooooooooooooooooo####################",
"####################oooo    oooooooooooooooo####################",
"####################oooo    oooo        oooo####################",
"####################oooo@@@@oooo        oooo####################",
"################oooooooo@@@@oooo@@@@@@@@oooooooo################",
"################oooooooo@@++oooo@@@@@+++oooooooo################",
"################oooooooo@@++oooo@@@@@+++oooooooo################",
"################oooooooo@@++oooo@@@@@+++oooooooo################",
"################oooooooo@@++oooo@@@@@+++oooooooo################",
"################oooooooo@@++oooo@@@@@+++oooooooo################",
"################oooooooo@@@@oooo@@@@@@@@oooooooo################",
"################oooooooo@@@@oooo@@@@@@@@oooooooo################",
"############oooooooooooooooooooooooooooooooooooooooo############",
"############oooooooooooooooooooooooooooooooooooooooo############",
"############oooooooooooooooooooooooooooooooooooooooo############",
"############ooo###oooooooooooooooooooooooooooo###ooo############",
"############ooo#########@@@@####@@@@#############ooo############",
"############ooo#########@@@@####@@@@#############ooo############",
"############ooo#########@@@@####@@@@#############ooo############",
"############ooo#########@@@@####@@@@#############ooo############",
"############oooo########@@@@####@@@@############oooo############",
"############oooo########@@@@####@@@@############oooo############",
"############oooo################################oooo############",
"############oooo################################oooo############",
"############oooooooo########################oooooooo############",
"############oooooooo########################oooooooo############",
"############oooooooooooooooooooooooooooooooooooooooo############",
"############oooooooooooooooooooooooooooooooooooooooo############",
"################oooooooooooooooooooooooooooooooo################",
"################oooooooooooooooooooooooooooooooo################",
"################oooooooooooooooooooooooooooooooo################",
"################oooooooooooooooooooooooooooooooo################",
"########################oooooooooooooooo########################",
"########################oooooooooooooooo########################",
"########################oooooooooooooooo########################",
"########################oooooooooooooooo########################",
"################################################################",
"################################################################",
"################################################################",
"################################################################"
};
